<svg width="92" height="80" viewBox="0 0 92 80" fill="none" xmlns="http://www.w3.org/2000/svg">
<path d="M91.2663 58.3259L88.0824 53.3567C88.1744 45.1668 86.0457 37.6333 81.7636 30.9587L69.5125 11.8612C68.4818 10.2539 66.8929 9.14959 65.028 8.73857C63.163 8.33367 61.2551 8.67722 59.6478 9.70173C58.0405 10.7324 56.9362 12.3213 56.5252 14.1862C56.519 14.2046 56.519 14.2169 56.519 14.2353C54.194 12.401 50.8689 12.1372 48.2432 13.8243C46.6359 14.8549 45.5317 16.4438 45.1207 18.3088C45.1084 18.364 45.1022 18.4192 45.0961 18.4744C42.7833 16.769 39.5626 16.5604 37.0044 18.1984C35.4952 19.1677 34.4768 20.6093 34.0106 22.2044L21.876 3.29089C20.8454 1.68359 19.2565 0.579329 17.3915 0.1683C15.5265 -0.242729 13.6186 0.106952 12.0113 1.13146C8.69855 3.25409 7.72926 7.68339 9.85802 10.9962L33.5566 47.9459L22.6183 45.3938C22.0601 45.265 21.5018 45.0564 20.9067 44.8355L20.7718 44.7864C18.1215 43.7987 14.8824 44.8662 13.0481 46.4306C11.723 47.5655 10.9868 49.0194 10.9316 50.639C10.8703 52.4794 11.723 54.418 13.2812 55.9456C13.3671 56.0253 13.4591 56.099 13.5634 56.1542L24.8391 62.1356C26.0293 62.8533 30.7714 64.5527 36.8264 66.6937C38.6669 67.344 40.3049 67.9206 41.3539 68.3133C43.3538 69.0556 45.5071 69.8715 47.6482 70.8101L48.9181 71.3622C51.8444 72.6383 54.4946 74.1781 55.2798 74.6443L58.3349 79.4356C58.5681 79.8037 58.9668 80 59.3717 80C59.5987 80 59.8257 79.9387 60.0281 79.8098C60.5987 79.4479 60.7704 78.6872 60.4024 78.1166L57.1939 73.08C57.0957 72.9266 56.9608 72.7916 56.8012 72.6935C56.6724 72.6137 53.5376 70.6936 49.8935 69.1108L48.6236 68.5587C46.4151 67.5955 44.1391 66.7305 42.2005 66.0127C41.1453 65.6201 39.4951 65.0373 37.6424 64.3809C33.4339 62.8901 27.0722 60.6448 26.1029 60.0313C26.0783 60.0129 26.0477 60.0007 26.0231 59.9823L14.8763 54.0683C13.8886 53.0438 13.3426 51.8353 13.3794 50.7249C13.41 49.7985 13.8333 48.9765 14.637 48.2955C16.0909 47.0563 18.4037 46.5226 19.9129 47.087L20.0479 47.1361C20.6859 47.3753 21.3423 47.6207 22.0601 47.7864L35.9369 51.0255C36.4216 51.1421 36.9307 50.9458 37.2191 50.5409C37.5074 50.136 37.5197 49.59 37.2497 49.1728L11.9254 9.67105C10.5328 7.49934 11.1647 4.59146 13.3426 3.19887C14.3977 2.52405 15.6492 2.29706 16.8701 2.56699C18.0909 2.83079 19.1399 3.56082 19.8147 4.616L37.3786 31.9955C37.7467 32.566 38.5074 32.7316 39.0718 32.3635C39.6423 31.9955 39.8079 31.2409 39.4399 30.6704L36.9185 26.738C35.5259 24.5663 36.1578 21.6584 38.3295 20.2658C40.5012 18.8732 43.409 19.5051 44.8016 21.6768L47.4212 25.7625C47.7893 26.3331 48.5439 26.4987 49.1144 26.1306C49.6849 25.7625 49.8506 25.008 49.4825 24.4374L48.1512 22.3577C47.4764 21.3026 47.2494 20.0511 47.5193 18.8303C47.7893 17.6094 48.5132 16.5604 49.5684 15.8856C51.7401 14.493 54.6479 15.1249 56.0405 17.2966L57.2736 19.2229C57.2982 19.2597 57.3288 19.2904 57.3534 19.3272C57.4025 19.4069 57.4393 19.4867 57.4883 19.5603C57.8564 20.1308 58.611 20.2965 59.1815 19.9284C59.7521 19.5603 59.9177 18.8057 59.5496 18.2352C58.8748 17.18 58.6478 15.9285 58.9177 14.7077C59.1877 13.4869 59.9116 12.4378 60.9668 11.763C62.0219 11.0882 63.2734 10.8612 64.4942 11.1311C65.7151 11.4011 66.7641 12.125 67.4389 13.1801L79.6901 32.2777C83.7697 38.6394 85.7635 45.8416 85.6101 53.6757C85.604 53.9211 85.6714 54.1604 85.8064 54.3628L89.1928 59.6448C89.4259 60.0068 89.8247 60.2092 90.2296 60.2092C90.4566 60.2092 90.6835 60.1479 90.8921 60.0129C91.4688 59.651 91.6344 58.8964 91.2663 58.3259Z" fill="black"/>
<path d="M0.570127 21.4191C0.772574 21.548 0.99956 21.6093 1.22655 21.6093C1.63144 21.6093 2.0302 21.4069 2.26332 21.0388L4.10375 18.1432V24.873C4.10375 25.5478 4.65588 26.1 5.3307 26.1C6.00553 26.1 6.55766 25.5478 6.55766 24.873V18.1432L8.39809 21.0388C8.76004 21.6093 9.52075 21.7811 10.0913 21.4191C10.6618 21.0572 10.8336 20.2965 10.4716 19.7259L6.36748 13.266C6.36748 13.2599 6.36134 13.2599 6.36134 13.2538C6.31227 13.174 6.25092 13.1065 6.18344 13.039C6.16503 13.0206 6.14663 13.0084 6.12822 12.9961C6.07301 12.9532 6.0178 12.9102 5.96259 12.8734C5.93805 12.855 5.91351 12.8427 5.88283 12.8305C5.82149 12.7998 5.76014 12.7752 5.69266 12.7568C5.66812 12.7507 5.64358 12.7384 5.6129 12.7323C5.52088 12.7078 5.42886 12.6955 5.3307 12.6955C5.23255 12.6955 5.14053 12.7078 5.04851 12.7323C5.02397 12.7384 4.99943 12.7507 4.96875 12.7568C4.90127 12.7752 4.83992 12.7998 4.77858 12.8305C4.75404 12.8427 4.72336 12.855 4.69882 12.8734C4.63748 12.9102 4.58226 12.947 4.53319 12.9961C4.51478 13.0145 4.49638 13.0268 4.47797 13.039C4.41049 13.1004 4.34914 13.174 4.30006 13.2538C4.30006 13.2599 4.29393 13.2599 4.29393 13.266L0.195905 19.7259C-0.166046 20.2965 -0.000406628 21.051 0.570127 21.4191Z" fill="black"/>
<path d="M10.0912 39.9707C9.5207 39.6087 8.76 39.7743 8.39804 40.351L6.55761 43.2466V36.5106C6.55761 35.8358 6.00549 35.2837 5.33066 35.2837C4.65584 35.2837 4.10371 35.8358 4.10371 36.5106V43.2405L2.26328 40.3449C1.90133 39.7743 1.14062 39.6026 0.570083 39.9645C-0.000449982 40.3265 -0.172223 41.0872 0.189728 41.6577L4.28775 48.1176C4.28775 48.1238 4.29389 48.1238 4.29389 48.1299C4.34296 48.2096 4.40431 48.2771 4.47179 48.3446C4.4902 48.363 4.5086 48.3753 4.52701 48.3876C4.58222 48.4305 4.63743 48.4734 4.69265 48.5102C4.71718 48.5286 4.74172 48.5409 4.7724 48.5532C4.83375 48.5839 4.89509 48.6084 4.96257 48.6268C4.98711 48.6329 5.01165 48.6452 5.04233 48.6513C5.13435 48.6759 5.22637 48.6882 5.32453 48.6882C5.42268 48.6882 5.5147 48.6759 5.60673 48.6513C5.63127 48.6452 5.6558 48.6329 5.68648 48.6268C5.75396 48.6084 5.81531 48.5839 5.87666 48.5532C5.90119 48.5409 5.93187 48.5286 5.95641 48.5102C6.01776 48.4734 6.07297 48.4366 6.12205 48.3876C6.14045 48.3691 6.15885 48.3569 6.17726 48.3446C6.24474 48.2833 6.30609 48.2096 6.35517 48.1299C6.35517 48.1238 6.3613 48.1238 6.3613 48.1176L10.4655 41.6577C10.8335 41.0933 10.6618 40.3326 10.0912 39.9707Z" fill="black"/>
</svg>
