<svg width="65" height="28" viewBox="0 0 65 28" fill="none" xmlns="http://www.w3.org/2000/svg">
<rect x="0.730957" width="28" height="28" rx="4" fill="#EFEFEF"/>
<path d="M10.231 8C10.6288 8 11.0103 8.15804 11.2916 8.43934C11.5729 8.72065 11.731 9.10218 11.731 9.5V11H10.231C10.034 11 9.83892 10.9612 9.65693 10.8858C9.47494 10.8104 9.30959 10.6999 9.1703 10.5607C9.03101 10.4214 8.92052 10.256 8.84514 10.074C8.76976 9.89204 8.73096 9.69698 8.73096 9.5C8.73096 9.30302 8.76976 9.10796 8.84514 8.92598C8.92052 8.74399 9.03101 8.57863 9.1703 8.43934C9.30959 8.30005 9.47494 8.18956 9.65693 8.11418C9.83892 8.0388 10.034 8 10.231 8ZM12.731 11V9.5C12.731 9.00555 12.5843 8.5222 12.3096 8.11108C12.0349 7.69995 11.6445 7.37952 11.1877 7.1903C10.7309 7.00108 10.2282 6.95157 9.74323 7.04804C9.25828 7.1445 8.81282 7.3826 8.46319 7.73223C8.11356 8.08187 7.87546 8.52732 7.77899 9.01228C7.68253 9.49723 7.73204 9.99989 7.92126 10.4567C8.11048 10.9135 8.43091 11.304 8.84203 11.5787C9.25316 11.8534 9.73651 12 10.231 12H11.731V16H10.231C9.73651 16 9.25316 16.1466 8.84203 16.4213C8.43091 16.696 8.11048 17.0865 7.92126 17.5433C7.73204 18.0001 7.68253 18.5028 7.77899 18.9877C7.87546 19.4727 8.11356 19.9181 8.46319 20.2678C8.81282 20.6174 9.25828 20.8555 9.74323 20.952C10.2282 21.0484 10.7309 20.9989 11.1877 20.8097C11.6445 20.6205 12.0349 20.3 12.3096 19.8889C12.5843 19.4778 12.731 18.9945 12.731 18.5V17H16.731V18.5C16.731 18.9945 16.8776 19.4778 17.1523 19.8889C17.427 20.3 17.8174 20.6205 18.2742 20.8097C18.7311 20.9989 19.2337 21.0484 19.7187 20.952C20.2036 20.8555 20.6491 20.6174 20.9987 20.2678C21.3484 19.9181 21.5865 19.4727 21.6829 18.9877C21.7794 18.5028 21.7299 18.0001 21.5407 17.5433C21.3514 17.0865 21.031 16.696 20.6199 16.4213C20.2088 16.1466 19.7254 16 19.231 16H17.731V12H19.231C19.7254 12 20.2088 11.8534 20.6199 11.5787C21.031 11.304 21.3514 10.9135 21.5407 10.4567C21.7299 9.99989 21.7794 9.49723 21.6829 9.01228C21.5865 8.52732 21.3484 8.08187 20.9987 7.73223C20.6491 7.3826 20.2036 7.1445 19.7187 7.04804C19.2337 6.95157 18.7311 7.00108 18.2742 7.1903C17.8174 7.37952 17.427 7.69995 17.1523 8.11108C16.8776 8.5222 16.731 9.00555 16.731 9.5V11H12.731ZM16.731 12V16H12.731V12H16.731ZM17.731 11V9.5C17.731 9.20333 17.8189 8.91332 17.9838 8.66665C18.1486 8.41997 18.3828 8.22771 18.6569 8.11418C18.931 8.00065 19.2326 7.97095 19.5236 8.02882C19.8146 8.0867 20.0818 8.22956 20.2916 8.43934C20.5014 8.64912 20.6443 8.91639 20.7021 9.20737C20.76 9.49834 20.7303 9.79994 20.6168 10.074C20.5032 10.3481 20.311 10.5824 20.0643 10.7472C19.8176 10.912 19.5276 11 19.231 11H17.731ZM17.731 17H19.231C19.5276 17 19.8176 17.088 20.0643 17.2528C20.311 17.4176 20.5032 17.6519 20.6168 17.926C20.7303 18.2001 20.76 18.5017 20.7021 18.7926C20.6443 19.0836 20.5014 19.3509 20.2916 19.5607C20.0818 19.7704 19.8146 19.9133 19.5236 19.9712C19.2326 20.0291 18.931 19.9994 18.6569 19.8858C18.3828 19.7723 18.1486 19.58 17.9838 19.3334C17.8189 19.0867 17.731 18.7967 17.731 18.5V17ZM11.731 17V18.5C11.731 18.7967 11.643 19.0867 11.4782 19.3334C11.3133 19.58 11.0791 19.7723 10.805 19.8858C10.5309 19.9994 10.2293 20.0291 9.93832 19.9712C9.64735 19.9133 9.38008 19.7704 9.1703 19.5607C8.96052 19.3509 8.81766 19.0836 8.75978 18.7926C8.7019 18.5017 8.73161 18.2001 8.84514 17.926C8.95867 17.6519 9.15093 17.4176 9.3976 17.2528C9.64428 17.088 9.93429 17 10.231 17H11.731Z" fill="#222222"/>
<rect x="36.731" width="28" height="28" rx="4" fill="#EFEFEF"/>
<path d="M50.001 8.04702C50.0946 7.94711 50.2076 7.86746 50.3332 7.81301C50.4587 7.75856 50.5941 7.73047 50.731 7.73047C50.8679 7.73047 51.0033 7.75856 51.1289 7.81301C51.2544 7.86746 51.3675 7.94711 51.461 8.04702L57.806 14.817C58.406 15.455 57.952 16.5 57.076 16.5H54.231V19.5C54.231 19.7652 54.1257 20.0196 53.9381 20.2071C53.7506 20.3947 53.4962 20.5 53.231 20.5H48.231C47.9658 20.5 47.7114 20.3947 47.5239 20.2071C47.3364 20.0196 47.231 19.7652 47.231 19.5V16.5H44.385C43.511 16.5 43.057 15.455 43.655 14.816L50.001 8.04702ZM57.077 15.5L50.731 8.73102L44.385 15.5H47.231C47.4962 15.5 47.7506 15.6054 47.9381 15.7929C48.1257 15.9805 48.231 16.2348 48.231 16.5V19.5H53.231V16.5C53.231 16.2348 53.3364 15.9805 53.5239 15.7929C53.7114 15.6054 53.9658 15.5 54.231 15.5H57.077Z" fill="#222222"/>
</svg>
