<svg width="55" height="80" viewBox="0 0 55 80" fill="none" xmlns="http://www.w3.org/2000/svg">
<path d="M23.6357 46.1281C23.8083 46.2379 24.0018 46.2902 24.1952 46.2902C24.5403 46.2902 24.8802 46.1176 25.0789 45.8039L26.6475 43.3359V49.0719C26.6475 49.6471 27.1181 50.1176 27.6933 50.1176C28.2684 50.1176 28.739 49.6471 28.739 49.0719V43.3359L30.3076 45.8039C30.6161 46.2902 31.2645 46.4366 31.7508 46.1281C32.2371 45.8196 32.3835 45.1712 32.075 44.685L28.5769 39.1791C28.5769 39.1739 28.5717 39.1739 28.5717 39.1686C28.5299 39.1007 28.4776 39.0431 28.4201 38.9856C28.4044 38.9699 28.3887 38.9595 28.373 38.949C28.3259 38.9124 28.2789 38.8758 28.2318 38.8444C28.2109 38.8288 28.19 38.8183 28.1639 38.8078C28.1116 38.7817 28.0593 38.7608 28.0018 38.7451C27.9808 38.7399 27.9599 38.7294 27.9338 38.7242C27.8554 38.7033 27.7769 38.6928 27.6933 38.6928C27.6096 38.6928 27.5312 38.7033 27.4527 38.7242C27.4318 38.7294 27.4109 38.7399 27.3848 38.7451C27.3272 38.7608 27.275 38.7817 27.2227 38.8078C27.2018 38.8183 27.1756 38.8288 27.1547 38.8444C27.1024 38.8758 27.0554 38.9072 27.0135 38.949C26.9978 38.9647 26.9822 38.9752 26.9665 38.9856C26.9089 39.0379 26.8567 39.1007 26.8148 39.1686C26.8148 39.1739 26.8096 39.1739 26.8096 39.1791L23.3168 44.685C23.0083 45.1712 23.1495 45.8144 23.6357 46.1281Z" fill="black"/>
<path d="M31.7545 61.9398C31.2682 61.6313 30.6198 61.7725 30.3114 62.264L28.7427 64.732V58.9908C28.7427 58.4157 28.2721 57.9451 27.697 57.9451C27.1218 57.9451 26.6512 58.4157 26.6512 58.9908V64.7268L25.0826 62.2588C24.7741 61.7725 24.1257 61.6261 23.6395 61.9346C23.1532 62.2431 23.0068 62.8915 23.3153 63.3777L26.8081 68.8836C26.8081 68.8889 26.8133 68.8889 26.8133 68.8941C26.8551 68.9621 26.9074 69.0196 26.9649 69.0771C26.9806 69.0928 26.9963 69.1032 27.012 69.1137C27.0591 69.1503 27.1061 69.1869 27.1532 69.2183C27.1741 69.234 27.195 69.2444 27.2212 69.2549C27.2734 69.281 27.3257 69.3019 27.3832 69.3176C27.4042 69.3228 27.4251 69.3333 27.4512 69.3385C27.5297 69.3594 27.6081 69.3699 27.6917 69.3699C27.7754 69.3699 27.8538 69.3594 27.9323 69.3385C27.9532 69.3333 27.9741 69.3228 28.0002 69.3176C28.0578 69.3019 28.11 69.281 28.1623 69.2549C28.1832 69.2444 28.2094 69.234 28.2303 69.2183C28.2826 69.1869 28.3297 69.1555 28.3715 69.1137C28.3872 69.098 28.4029 69.0876 28.4185 69.0771C28.4761 69.0248 28.5283 68.9621 28.5702 68.8941C28.5702 68.8889 28.5754 68.8889 28.5754 68.8836L32.0734 63.3777C32.3872 62.8967 32.2408 62.2483 31.7545 61.9398Z" fill="black"/>
<path d="M19.7934 58.0026C19.9033 57.8301 19.9555 57.6366 19.9555 57.4431C19.9555 57.098 19.783 56.7582 19.4693 56.5595L17.0013 54.9909H22.7372C23.3124 54.9909 23.783 54.5203 23.783 53.9451C23.783 53.3699 23.3124 52.8994 22.7372 52.8994H17.0013L19.4693 51.3307C19.9555 51.0222 20.1019 50.3739 19.7934 49.8876C19.485 49.4013 18.8366 49.2549 18.3503 49.5634L12.8444 53.0614C12.8392 53.0614 12.8392 53.0667 12.834 53.0667C12.766 53.1085 12.7085 53.1608 12.651 53.2183C12.6353 53.234 12.6248 53.2497 12.6144 53.2654C12.5778 53.3124 12.5412 53.3595 12.5098 53.4065C12.4941 53.4275 12.4836 53.4484 12.4732 53.4745C12.447 53.5268 12.4261 53.5791 12.4104 53.6366C12.4052 53.6575 12.3948 53.6784 12.3895 53.7046C12.3686 53.783 12.3582 53.8614 12.3582 53.9451C12.3582 54.0288 12.3686 54.1072 12.3895 54.1856C12.3948 54.2065 12.4052 54.2275 12.4104 54.2536C12.4261 54.3111 12.447 54.3634 12.4732 54.4157C12.4836 54.4366 12.4941 54.4628 12.5098 54.4837C12.5412 54.536 12.5725 54.583 12.6144 54.6248C12.6301 54.6405 12.6405 54.6562 12.651 54.6719C12.7033 54.7294 12.766 54.7817 12.834 54.8235C12.8392 54.8235 12.8392 54.8288 12.8444 54.8288L18.3503 58.3216C18.8366 58.6301 19.4797 58.4889 19.7934 58.0026Z" fill="black"/>
<path d="M35.6044 50.0625C35.2959 50.5488 35.4371 51.1972 35.9286 51.5057L38.3965 53.0743H32.6554C32.0802 53.0743 31.6096 53.5449 31.6096 54.12C31.6096 54.6952 32.0802 55.1658 32.6554 55.1658H38.3913L35.9233 56.7344C35.4371 57.0429 35.2907 57.6913 35.5992 58.1776C35.9077 58.6638 36.556 58.8102 37.0423 58.5017L42.5482 55.0089C42.5534 55.0089 42.5534 55.0037 42.5586 55.0037C42.6266 54.9619 42.6841 54.9096 42.7416 54.8521C42.7573 54.8364 42.7678 54.8207 42.7782 54.805C42.8148 54.758 42.8514 54.7109 42.8828 54.6638C42.8985 54.6429 42.909 54.622 42.9194 54.5959C42.9456 54.5436 42.9665 54.4913 42.9822 54.4338C42.9874 54.4129 42.9979 54.3919 43.0031 54.3658C43.024 54.2874 43.0345 54.2089 43.0345 54.1253C43.0345 54.0416 43.024 53.9632 43.0031 53.8848C42.9979 53.8638 42.9874 53.8429 42.9822 53.8168C42.9665 53.7593 42.9456 53.707 42.9194 53.6547C42.909 53.6338 42.8985 53.6076 42.8828 53.5867C42.8514 53.5344 42.8201 53.4874 42.7782 53.4455C42.7626 53.4298 42.7521 53.4142 42.7416 53.3985C42.6894 53.341 42.6266 53.2887 42.5586 53.2468C42.5534 53.2468 42.5534 53.2416 42.5482 53.2416L37.0423 49.7436C36.5613 49.4298 35.9129 49.5763 35.6044 50.0625Z" fill="black"/>
<rect x="1.04907" y="1" width="52.902" height="78" rx="26.451" stroke="black" stroke-width="2"/>
<rect x="22.0981" y="11.4575" width="10.0261" height="15.7778" rx="5.01307" stroke="black" stroke-width="2"/>
<line x1="27" y1="12.0261" x2="27" y2="1.04573" stroke="black" stroke-width="2"/>
</svg>
