<svg width="56" height="80" viewBox="0 0 56 80" fill="none" xmlns="http://www.w3.org/2000/svg">
<path d="M23.9778 46.1588C24.1487 46.2645 24.3404 46.3149 24.5321 46.3149C24.8741 46.3149 25.2108 46.1487 25.4077 45.8467L26.962 43.4705V48.9931C26.962 49.5469 27.4283 50 27.9982 50C28.5681 50 29.0343 49.5469 29.0343 48.9931V43.4705L30.5886 45.8467C30.8943 46.3149 31.5367 46.4558 32.0186 46.1588C32.5004 45.8618 32.6454 45.2375 32.3398 44.7693L28.8737 39.4682C28.8737 39.4632 28.8686 39.4632 28.8686 39.4581C28.8271 39.3927 28.7753 39.3373 28.7183 39.2819C28.7028 39.2668 28.6872 39.2568 28.6717 39.2467C28.6251 39.2114 28.5784 39.1762 28.5318 39.146C28.5111 39.1309 28.4903 39.1208 28.4644 39.1108C28.4126 39.0856 28.3608 39.0654 28.3038 39.0503C28.2831 39.0453 28.2624 39.0352 28.2365 39.0302C28.1588 39.0101 28.0811 39 27.9982 39C27.9153 39 27.8376 39.0101 27.7598 39.0302C27.7391 39.0352 27.7184 39.0453 27.6925 39.0503C27.6355 39.0654 27.5837 39.0856 27.5319 39.1108C27.5112 39.1208 27.4853 39.1309 27.4645 39.146C27.4127 39.1762 27.3661 39.2064 27.3246 39.2467C27.3091 39.2618 27.2936 39.2719 27.278 39.2819C27.221 39.3323 27.1692 39.3927 27.1278 39.4581C27.1278 39.4632 27.1226 39.4632 27.1226 39.4682L23.6617 44.7693C23.3561 45.2375 23.4959 45.8568 23.9778 46.1588Z" fill="black"/>
<path d="M32.0201 61.8462C31.5384 61.5492 30.8961 61.6851 30.5905 62.1584L29.0366 64.5346V59.0069C29.0366 58.4531 28.5704 58 28.0007 58C27.4309 58 26.9648 58.4531 26.9648 59.0069V64.5295L25.4109 62.1533C25.1053 61.6851 24.463 61.5442 23.9813 61.8412C23.4996 62.1382 23.3546 62.7625 23.6602 63.2307L27.1202 68.5318C27.1202 68.5368 27.1253 68.5368 27.1253 68.5419C27.1668 68.6073 27.2186 68.6627 27.2755 68.7181C27.2911 68.7332 27.3066 68.7432 27.3222 68.7533C27.3688 68.7886 27.4154 68.8238 27.462 68.854C27.4827 68.8691 27.5034 68.8792 27.5293 68.8892C27.5811 68.9144 27.6329 68.9346 27.6899 68.9497C27.7106 68.9547 27.7314 68.9648 27.7573 68.9698C27.8349 68.9899 27.9126 69 27.9955 69C28.0784 69 28.1561 68.9899 28.2338 68.9698C28.2545 68.9648 28.2752 68.9547 28.3011 68.9497C28.3581 68.9346 28.4099 68.9144 28.4617 68.8892C28.4824 68.8792 28.5083 68.8691 28.529 68.854C28.5808 68.8238 28.6274 68.7936 28.6689 68.7533C28.6844 68.7382 28.6999 68.7281 28.7155 68.7181C28.7725 68.6677 28.8242 68.6073 28.8657 68.5419C28.8657 68.5368 28.8709 68.5368 28.8709 68.5318L32.336 63.2307C32.6468 62.7675 32.5018 62.1432 32.0201 61.8462Z" fill="black"/>
<rect x="23.5" y="11" width="10" height="16" rx="5" stroke="black" stroke-width="2"/>
<line x1="28.5" y1="12" x2="28.5" y2="1" stroke="black" stroke-width="2"/>
<rect x="1.5" y="1" width="53" height="78" rx="26.5" stroke="black" stroke-width="2"/>
</svg>
