<svg width="103" height="130" viewBox="0 0 103 130" fill="none" xmlns="http://www.w3.org/2000/svg">
<path d="M101.248 27.0676C99.8863 24.9768 97.7867 23.5361 95.3445 23.0178C92.9023 22.4995 90.3986 22.9651 88.3078 24.3355L43.259 53.6858L49.5753 41.1937C51.6134 37.8466 51.262 33.6123 48.6968 30.643C47.054 28.7455 44.6645 27.6123 42.1521 27.542C39.622 27.4541 37.1974 28.4644 35.4492 30.2741C35.3614 30.3619 35.2823 30.4586 35.2208 30.5728L26.8576 44.04C25.6101 46.0429 24.2485 48.0195 23.0801 49.6887C20.594 53.2202 16.7023 60.3886 14.875 65.4224C13.935 68.0051 12.9072 70.7724 11.73 73.5308L11.0272 75.1736C9.43718 78.8896 7.51329 82.263 6.89835 83.326L0.801642 87.2704C-0.0153519 87.7975 -0.243759 88.8868 0.283334 89.7038C0.617159 90.2221 1.18818 90.5032 1.75919 90.5032C2.08423 90.5032 2.41806 90.4154 2.70796 90.2221L9.14728 86.0493C9.3669 85.9087 9.56017 85.7155 9.69194 85.487C9.79736 85.3201 12.2396 81.2615 14.2513 76.5616L14.9541 74.9188C16.1664 72.0813 17.2206 69.2614 18.1693 66.6347C19.8824 61.9348 23.6335 54.9947 25.944 51.7092C27.1387 50.0049 28.5443 47.9756 29.8357 45.8936L38.0934 32.6021C39.1564 31.5655 40.5532 31.0208 42.0554 31.0647C43.6104 31.1086 45.0247 31.7763 46.035 32.9535C47.6075 34.7719 47.8183 37.3723 46.5445 39.4191C46.5182 39.4631 46.4918 39.507 46.4654 39.5509L37.171 57.9289C36.8109 58.6405 36.9778 59.5014 37.5664 60.0285C38.1549 60.5556 39.0334 60.6258 39.7011 60.1954L90.2229 27.2784C91.5319 26.4263 93.0868 26.1364 94.6154 26.4614C96.1439 26.7865 97.4529 27.6825 98.305 28.9915C100.062 31.6884 99.2977 35.3166 96.6007 37.0736L61.5754 59.8879C60.7584 60.415 60.53 61.5043 61.0659 62.3213C61.593 63.1383 62.6823 63.3667 63.4993 62.8308L68.5331 59.5541C69.842 58.702 71.3969 58.412 72.9255 58.7371C74.4541 59.0621 75.763 59.9582 76.6151 61.2671C77.4673 62.5761 77.7572 64.131 77.4321 65.6596C77.1071 67.1881 76.211 68.4971 74.9021 69.3492L69.6751 72.7578C68.8581 73.2848 68.6297 74.3742 69.1656 75.1912C69.6927 75.9994 70.782 76.2366 71.599 75.7007L74.252 73.9701C75.561 73.1179 77.1159 72.828 78.6445 73.1531C80.173 73.4781 81.482 74.3742 82.3341 75.6831C83.1862 76.9921 83.4761 78.547 83.1511 80.0756C82.826 81.6041 81.93 82.9131 80.621 83.7652L78.1613 85.3728C78.1174 85.408 78.0734 85.4431 78.0295 85.4783C77.9329 85.5398 77.8275 85.5925 77.7308 85.654C76.9138 86.181 76.6854 87.2704 77.2213 88.0874C77.7484 88.8956 78.8377 89.1328 79.6547 88.5969C80.9637 87.7448 82.5186 87.4549 84.0472 87.7799C85.5757 88.1049 86.8847 89.001 87.7368 90.3099C89.4938 93.0069 88.7295 96.6351 86.0325 98.392L61.6018 114.31C53.4933 119.59 44.3044 122.208 34.2545 122.085C33.9118 122.085 33.5692 122.181 33.2705 122.366L26.515 126.767C25.698 127.294 25.4696 128.384 26.0055 129.201C26.3393 129.719 26.9015 130 27.4813 130C27.8064 130 28.1402 129.912 28.4389 129.719L34.7376 125.572C34.7903 125.572 34.8518 125.572 34.9045 125.572C45.3761 125.572 54.9956 122.761 63.5081 117.218L87.9389 101.3C92.261 98.4799 93.4821 92.6731 90.6709 88.3597C89.3444 86.3304 87.3327 84.9248 84.9783 84.3714C85.7514 83.3172 86.3049 82.1049 86.586 80.7871C87.1043 78.3449 86.6387 75.8413 85.2682 73.7505C83.8715 71.6157 81.7543 70.2365 79.4351 69.727C80.1115 68.7255 80.6035 67.601 80.8582 66.3799C81.3765 63.9377 80.9109 61.434 79.5405 59.3432C78.3633 57.5423 76.6503 56.2246 74.6385 55.5657L98.5158 40.0165C100.607 38.6549 102.047 36.5553 102.566 34.1131C103.084 31.6621 102.618 29.1584 101.248 27.0676Z" fill="black"/>
<path d="M25.3378 11.9488C25.6101 11.817 52.3513 -0.88591 78.8729 11.6325L71.5726 12.3178C70.6063 12.4056 69.8947 13.2665 69.9913 14.2329C70.0792 15.1465 70.8435 15.8229 71.7395 15.8229C71.7922 15.8229 71.8537 15.8229 71.9064 15.8141L85.198 14.5667C85.8129 14.5052 86.3576 14.1274 86.6211 13.5652C86.8847 13.003 86.832 12.3441 86.4893 11.8346L79.0134 0.774432C78.4688 -0.0249918 77.3794 -0.244614 76.5712 0.300049C75.7718 0.844711 75.5522 1.93404 76.0968 2.74225L79.7777 8.18009C51.9121 -4.61948 24.9513 8.22401 23.8004 8.78624C22.9307 9.20792 22.5706 10.2621 22.9922 11.1318C23.4139 12.0103 24.4681 12.3705 25.3378 11.9488ZM81.9212 11.3514L81.7543 11.369C81.7807 11.3251 81.8158 11.2899 81.8421 11.2372L81.9212 11.3514Z" fill="black"/>
</svg>
