<?xml version="1.0" encoding="UTF-8"?><svg id="Layer_1" xmlns="http://www.w3.org/2000/svg" xmlns:xlink="http://www.w3.org/1999/xlink" viewBox="0 0 181.91 128.55"><defs><style>.cls-1,.cls-2{fill:none;}.cls-3{clip-path:url(#clippath);}.cls-4{fill:#1d1d1b;}.cls-2{stroke:#1d1d1b;stroke-width:3.45px;}</style><clipPath id="clippath"><rect class="cls-1" width="181.91" height="128.55"/></clipPath></defs><g class="cls-3"><path class="cls-4" d="M154.96,128.1s.34-.44,.97-1.28c.32-.42,.71-.93,1.17-1.54,.23-.3,.48-.63,.74-.97,.25-.35,.51-.72,.79-1.12,.56-.79,1.17-1.65,1.84-2.6,.62-.99,1.32-2.02,2.05-3.14,1.42-2.27,2.92-4.88,4.46-7.76,.76-1.44,1.46-3,2.22-4.57,.33-.81,.7-1.62,1.06-2.45,.18-.41,.36-.83,.55-1.25,.18-.42,.33-.86,.5-1.29,.33-.87,.67-1.74,1.01-2.64,.32-.89,.6-1.82,.91-2.74,.63-1.84,1.14-3.76,1.72-5.69,.45-1.97,1-3.94,1.34-5.99,.42-2.03,.69-4.11,1.04-6.19,.54-4.19,.81-8.47,.81-12.75,0-4.28-.29-8.56-.84-12.75-.35-2.08-.62-4.16-1.05-6.18-.35-2.04-.9-4.02-1.36-5.98-.59-1.93-1.1-3.85-1.74-5.68-.31-.92-.59-1.84-.92-2.74-.34-.89-.68-1.76-1.02-2.63-.17-.43-.32-.87-.51-1.29-.19-.42-.37-.83-.55-1.25-.37-.83-.73-1.64-1.07-2.45-.77-1.57-1.47-3.12-2.24-4.56-1.54-2.88-3.05-5.48-4.48-7.74-.73-1.12-1.44-2.15-2.06-3.14-.68-.95-1.3-1.82-1.86-2.6-.56-.79-1.07-1.49-1.54-2.08-.46-.6-.85-1.11-1.17-1.52-.64-.83-.98-1.27-.98-1.27L155.04,0s.39,.4,1.11,1.16c.36,.38,.81,.84,1.33,1.39,.26,.27,.54,.57,.84,.88,.29,.33,.59,.68,.91,1.04,.64,.74,1.34,1.55,2.11,2.44,.72,.93,1.51,1.93,2.34,3,.84,1.07,1.63,2.28,2.52,3.52,.45,.61,.86,1.28,1.29,1.96,.43,.68,.86,1.37,1.31,2.08,.87,1.43,1.69,2.96,2.58,4.53,.4,.81,.81,1.63,1.23,2.46l.63,1.26c.21,.42,.39,.87,.58,1.3,.39,.88,.78,1.77,1.17,2.67,.38,.91,.71,1.85,1.08,2.78,.18,.47,.36,.94,.54,1.42,.18,.48,.32,.97,.49,1.45,.32,.98,.64,1.96,.97,2.96,1.16,4.02,2.15,8.23,2.82,12.58,.63,4.35,.98,8.8,1.03,13.27-.03,4.47-.38,8.92-.99,13.27-.66,4.35-1.63,8.56-2.78,12.59-.32,.99-.64,1.98-.96,2.96-.16,.49-.31,.98-.48,1.46-.18,.47-.36,.95-.54,1.42-.36,.94-.7,1.88-1.07,2.79-.39,.9-.78,1.79-1.16,2.67-.2,.44-.37,.88-.58,1.3-.21,.42-.42,.84-.62,1.26-.41,.83-.82,1.65-1.22,2.46-.88,1.57-1.7,3.11-2.57,4.54-.44,.71-.88,1.4-1.3,2.08-.42,.68-.83,1.34-1.28,1.96-.89,1.24-1.67,2.45-2.51,3.52-.83,1.07-1.61,2.08-2.33,3.01-.77,.89-1.47,1.71-2.11,2.45-.32,.37-.62,.72-.9,1.05-.3,.32-.58,.61-.84,.88-.52,.55-.96,1.01-1.32,1.39-.72,.76-1.1,1.16-1.1,1.16l-.27-.26Z"/><path class="cls-4" d="M26.95,.45s-.34,.44-.97,1.28c-.32,.42-.71,.93-1.17,1.54-.23,.3-.48,.63-.74,.97-.25,.35-.51,.72-.79,1.12-.56,.78-1.17,1.65-1.84,2.6-.62,.99-1.32,2.03-2.05,3.14-1.42,2.27-2.92,4.88-4.46,7.76-.76,1.44-1.46,3-2.22,4.57-.33,.81-.7,1.62-1.06,2.45-.18,.41-.36,.83-.55,1.25-.18,.42-.33,.86-.5,1.29-.33,.87-.67,1.75-1.01,2.64-.32,.89-.6,1.82-.91,2.74-.63,1.84-1.14,3.76-1.72,5.69-.45,1.97-1,3.94-1.34,5.99-.42,2.03-.69,4.11-1.04,6.19-.54,4.19-.81,8.47-.81,12.75,0,4.28,.29,8.56,.84,12.75,.35,2.08,.62,4.16,1.05,6.18,.35,2.04,.9,4.02,1.36,5.98,.59,1.93,1.1,3.85,1.74,5.68,.31,.92,.59,1.84,.92,2.74,.34,.89,.68,1.76,1.02,2.63,.17,.43,.32,.87,.51,1.29,.19,.42,.37,.83,.55,1.25,.37,.83,.73,1.64,1.07,2.45,.77,1.57,1.47,3.12,2.24,4.56,1.54,2.88,3.05,5.48,4.48,7.74,.73,1.12,1.44,2.15,2.06,3.14,.68,.95,1.3,1.82,1.86,2.6,.56,.79,1.07,1.49,1.54,2.08,.46,.6,.85,1.11,1.17,1.53,.64,.83,.98,1.27,.98,1.27l-.27,.27s-.39-.4-1.11-1.16c-.36-.38-.81-.84-1.33-1.39-.26-.27-.54-.57-.84-.88-.28-.33-.59-.68-.91-1.04-.64-.74-1.34-1.55-2.11-2.44-.72-.93-1.51-1.93-2.34-3-.84-1.07-1.63-2.28-2.52-3.52-.45-.61-.86-1.28-1.29-1.96-.43-.68-.86-1.37-1.31-2.08-.87-1.43-1.69-2.96-2.58-4.53-.4-.81-.81-1.63-1.23-2.46l-.63-1.26c-.21-.42-.39-.87-.58-1.3-.39-.88-.78-1.77-1.17-2.67-.38-.91-.71-1.85-1.08-2.78-.18-.47-.36-.94-.54-1.42-.18-.48-.32-.97-.49-1.45-.32-.98-.64-1.96-.97-2.96-1.16-4.02-2.14-8.23-2.82-12.58C.4,73.33,.05,68.88,0,64.41c.03-4.47,.38-8.92,.99-13.27,.66-4.35,1.63-8.56,2.78-12.59,.32-1,.64-1.98,.96-2.96,.16-.49,.31-.98,.48-1.46,.18-.47,.36-.95,.54-1.42,.36-.94,.69-1.88,1.07-2.79,.39-.9,.78-1.79,1.16-2.67,.2-.44,.37-.88,.58-1.3,.21-.42,.42-.84,.62-1.26,.41-.83,.82-1.65,1.22-2.46,.88-1.57,1.7-3.11,2.57-4.54,.44-.71,.88-1.4,1.3-2.08,.42-.68,.83-1.34,1.28-1.96,.89-1.24,1.67-2.45,2.51-3.52,.83-1.07,1.61-2.08,2.33-3.01,.77-.89,1.47-1.71,2.11-2.45,.32-.37,.62-.72,.9-1.05,.3-.31,.58-.61,.84-.88,.52-.55,.97-1.01,1.32-1.39,.72-.76,1.1-1.16,1.1-1.16l.27,.26Z"/><circle class="cls-2" cx="90.97" cy="64.4" r="60.23"/></g></svg>